# 3ds Max Wavefront OBJ Exporter v0.97b - (c)2007 guruware
# File Created: 24.09.2015 02:33:01

mtllib 3d-model.mtl

#
# object Gruppe_297_004
#

v  -361.1096 300.0000 -95.3282
v  -361.1096 600.0000 -95.3282
v  -1058.5334 600.0000 37.7125
v  -1058.5334 300.0000 37.7125
v  -1170.9623 300.0000 -551.6599
v  -473.5385 300.0000 -684.7006
v  -1078.1793 300.0000 41.4601
v  -1078.1793 600.0000 41.4601
v  -1274.6367 600.0000 78.9364
v  -1274.6367 300.0000 78.9364
v  -1190.6082 300.0000 -547.9122
v  -1387.0656 300.0000 -510.4359
v  -208.3209 600.0000 -735.2935
v  -208.3209 300.0000 -735.2935
v  -453.8927 300.0000 -688.4482
v  -453.8927 600.0000 -688.4482
v  -341.4639 600.0000 -99.0759
v  -95.8921 600.0000 -145.9212
v  -1190.6082 600.0000 -547.9122
v  -1387.0656 600.0000 -510.4359
v  -95.8921 300.0000 -145.9212
v  -341.4639 300.0000 -99.0759
v  -473.5385 600.0000 -684.7006
v  -1170.9623 600.0000 -551.6599
# 24 vertices

vn 0.1325 -0.7071 0.6946
vn 0.1325 0.7071 0.6946
vn -0.1325 -0.7071 -0.6946
vn 0.1874 0.0000 0.9823
vn -0.4589 0.5774 0.6753
vn -0.4589 -0.5774 0.6753
vn 0.0000 -1.0000 -0.0000
vn -0.6753 -0.5774 -0.4589
vn 0.4589 0.5774 -0.6753
vn 0.4589 -0.5774 -0.6753
vn -0.1325 0.7071 -0.6946
vn 0.0000 1.0000 -0.0000
vn 0.6753 0.5774 0.4589
vn -0.6753 0.5774 -0.4589
vn -0.1874 0.0000 -0.9823
vn 0.6753 -0.5774 0.4589
# 16 vertex normals

vt 1.3333 0.5817 0.0000
vt 1.1511 0.5817 0.0000
vt 1.1511 -0.0654 0.0000
vt 1.3333 -0.0654 0.0000
vt 5.0073 -2.6383 0.0000
vt 5.0073 -1.9283 0.0000
vt 4.6073 -1.9283 0.0000
vt 4.6073 -2.6383 0.0000
vt 1.3333 -0.0836 0.0000
vt 1.1511 -0.0836 0.0000
vt 1.1511 -0.2659 0.0000
vt 1.3333 -0.2659 0.0000
vt 4.6073 -1.9083 0.0000
vt 5.0073 -1.9083 0.0000
vt 5.0073 -1.7083 0.0000
vt 4.6073 -1.7083 0.0000
vt 1.1511 -4.4730 0.0000
vt 1.3333 -4.4730 0.0000
vt 1.3333 -4.2452 0.0000
vt 1.1511 -4.2452 0.0000
vt -5.0073 -2.6583 0.0000
vt -5.0073 -2.9083 0.0000
vt -4.6073 -2.9083 0.0000
vt -4.6073 -2.6583 0.0000
vt -5.0073 -1.7083 0.0000
vt -5.0073 -1.9083 0.0000
vt -4.6073 -1.9083 0.0000
vt -4.6073 -1.7083 0.0000
vt 1.1511 -3.5617 0.0000
vt 1.3333 -3.5617 0.0000
vt 1.3333 -3.3794 0.0000
vt 1.1511 -3.3794 0.0000
vt 5.0073 -2.9083 0.0000
vt 5.0073 -2.6583 0.0000
vt 4.6073 -2.6583 0.0000
vt 4.6073 -2.9083 0.0000
vt 1.3333 0.8277 0.0000
vt 1.1511 0.8277 0.0000
vt 1.1511 0.5999 0.0000
vt 1.3333 0.5999 0.0000
vt -5.0073 -1.9283 0.0000
vt -5.0073 -2.6383 0.0000
vt -4.6073 -2.6383 0.0000
vt -4.6073 -1.9283 0.0000
vt 1.1511 -4.2270 0.0000
vt 1.3333 -4.2270 0.0000
vt 1.3333 -3.5799 0.0000
vt 1.1511 -3.5799 0.0000
vt -75.1093 -28.1767 0.0000
vt -75.1093 -28.4720 0.0000
vt -69.1093 -28.4720 0.0000
vt -69.1093 -28.1767 0.0000
vt -19.2826 4.4297 0.0000
vt -19.2826 0.0000 0.0000
vt -19.0826 0.0000 0.0000
vt -19.0826 4.4297 0.0000
vt 75.1093 -28.4720 0.0000
vt 75.1093 -28.1767 0.0000
vt 69.1093 -28.1767 0.0000
vt 69.1093 -28.4720 0.0000
vt 75.1093 -39.2509 0.0000
vt 75.1093 -38.9556 0.0000
vt 69.1093 -38.9556 0.0000
vt 69.1093 -39.2509 0.0000
vt -26.5826 4.4297 0.0000
vt -26.5826 0.0000 0.0000
vt -26.3826 0.0000 0.0000
vt -26.3826 4.4297 0.0000
vt -69.1093 -38.9556 0.0000
vt -75.1093 -38.9556 0.0000
vt -75.1093 -39.2509 0.0000
vt -69.1093 -39.2509 0.0000
vt 6.9109 0.0000 0.0000
vt 7.5109 0.0000 0.0000
vt 7.5109 2.0000 0.0000
vt 6.9109 2.0000 0.0000
vt -7.5109 0.0000 0.0000
vt -6.9109 0.0000 0.0000
vt -6.9109 2.0000 0.0000
vt -7.5109 2.0000 0.0000
vt 19.2826 0.0000 0.0000
vt 19.2826 4.4297 0.0000
vt 19.0826 4.4297 0.0000
vt 19.0826 0.0000 0.0000
vt 26.5826 0.0000 0.0000
vt 26.5826 4.4297 0.0000
vt 26.3826 4.4297 0.0000
vt 26.3826 0.0000 0.0000
# 88 texture coords

g Gruppe_297_004
usemtl wire_006134006
s off
f 1/1/1 2/2/2 3/3/2 4/4/1 
f 1/5/1 4/6/1 5/7/3 6/8/3 
f 7/9/4 8/10/4 9/11/5 10/12/6 
f 11/13/3 7/14/7 10/15/6 12/16/8 
f 13/17/9 14/18/10 15/19/3 16/20/11 
f 17/21/12 18/22/13 13/23/9 16/24/11 
f 9/25/5 8/26/12 19/27/12 20/28/14 
f 19/29/15 11/30/3 12/31/8 20/32/14 
f 21/33/16 22/34/1 15/35/3 14/36/10 
f 21/37/16 18/38/13 17/39/4 22/40/1 
f 3/41/2 2/42/2 23/43/11 24/44/11 
f 23/45/11 6/46/3 5/47/3 24/48/11 
f 8/49/12 3/50/12 24/51/12 19/52/12 
f 24/53/15 5/54/15 11/55/15 19/56/15 
f 4/57/7 7/58/7 11/59/7 5/60/7 
f 22/61/7 1/62/7 6/63/7 15/64/7 
f 16/65/15 15/66/15 6/67/15 23/68/15 
f 23/69/12 2/70/12 17/71/12 16/72/12 
f 12/73/8 10/74/6 9/75/5 20/76/14 
f 21/77/16 14/78/10 13/79/9 18/80/13 
f 4/81/4 3/82/4 8/83/4 7/84/4 
f 22/85/4 17/86/4 2/87/4 1/88/4 
# 22 polygons

#
# object Gruppe_297_003
#

v  288.6722 0.0000 -140.0193
v  288.6722 300.0000 -140.0193
v  -408.7516 300.0000 -6.9786
v  -408.7516 0.0000 -6.9786
v  -521.1804 0.0000 -596.3510
v  176.2434 0.0000 -729.3917
v  -428.3975 0.0000 -3.2310
v  -428.3975 300.0000 -3.2310
v  -624.8549 300.0000 34.2453
v  -624.8549 0.0000 34.2453
v  -540.8263 0.0000 -592.6033
v  -737.2837 0.0000 -555.1270
v  441.4610 300.0000 -779.9846
v  441.4610 0.0000 -779.9846
v  195.8892 0.0000 -733.1393
v  195.8892 300.0000 -733.1393
v  308.3180 300.0000 -143.7670
v  553.8898 300.0000 -190.6123
v  -540.8263 300.0000 -592.6033
v  -737.2837 300.0000 -555.1270
v  553.8898 0.0000 -190.6123
v  308.3180 0.0000 -143.7670
v  176.2434 300.0000 -729.3917
v  -521.1804 300.0000 -596.3510
# 24 vertices

vn 0.1325 -0.7071 0.6946
vn 0.1325 0.7071 0.6946
vn -0.1325 -0.7071 -0.6946
vn 0.1874 0.0000 0.9823
vn -0.4589 0.5774 0.6753
vn -0.4589 -0.5774 0.6753
vn 0.0000 -1.0000 -0.0000
vn -0.6753 -0.5774 -0.4589
vn 0.4589 0.5774 -0.6753
vn 0.4589 -0.5774 -0.6753
vn -0.1325 0.7071 -0.6946
vn 0.0000 1.0000 -0.0000
vn 0.6753 0.5774 0.4589
vn -0.6753 0.5774 -0.4589
vn -0.1874 0.0000 -0.9823
vn 0.6753 -0.5774 0.4589
# 16 vertex normals

vt 1.3333 0.5817 0.0000
vt 1.1511 0.5817 0.0000
vt 1.1511 -0.0654 0.0000
vt 1.3333 -0.0654 0.0000
vt 5.0073 -2.6383 0.0000
vt 5.0073 -1.9283 0.0000
vt 4.6073 -1.9283 0.0000
vt 4.6073 -2.6383 0.0000
vt 1.3333 -0.0836 0.0000
vt 1.1511 -0.0836 0.0000
vt 1.1511 -0.2659 0.0000
vt 1.3333 -0.2659 0.0000
vt 4.6073 -1.9083 0.0000
vt 5.0073 -1.9083 0.0000
vt 5.0073 -1.7083 0.0000
vt 4.6073 -1.7083 0.0000
vt 1.1511 -4.4730 0.0000
vt 1.3333 -4.4730 0.0000
vt 1.3333 -4.2452 0.0000
vt 1.1511 -4.2452 0.0000
vt -5.0073 -2.6583 0.0000
vt -5.0073 -2.9083 0.0000
vt -4.6073 -2.9083 0.0000
vt -4.6073 -2.6583 0.0000
vt -5.0073 -1.7083 0.0000
vt -5.0073 -1.9083 0.0000
vt -4.6073 -1.9083 0.0000
vt -4.6073 -1.7083 0.0000
vt 1.1511 -3.5617 0.0000
vt 1.3333 -3.5617 0.0000
vt 1.3333 -3.3794 0.0000
vt 1.1511 -3.3794 0.0000
vt 5.0073 -2.9083 0.0000
vt 5.0073 -2.6583 0.0000
vt 4.6073 -2.6583 0.0000
vt 4.6073 -2.9083 0.0000
vt 1.3333 0.8277 0.0000
vt 1.1511 0.8277 0.0000
vt 1.1511 0.5999 0.0000
vt 1.3333 0.5999 0.0000
vt -5.0073 -1.9283 0.0000
vt -5.0073 -2.6383 0.0000
vt -4.6073 -2.6383 0.0000
vt -4.6073 -1.9283 0.0000
vt 1.1511 -4.2270 0.0000
vt 1.3333 -4.2270 0.0000
vt 1.3333 -3.5799 0.0000
vt 1.1511 -3.5799 0.0000
vt -75.1093 -28.1767 0.0000
vt -75.1093 -28.4720 0.0000
vt -69.1093 -28.4720 0.0000
vt -69.1093 -28.1767 0.0000
vt -19.2826 4.4297 0.0000
vt -19.2826 0.0000 0.0000
vt -19.0826 0.0000 0.0000
vt -19.0826 4.4297 0.0000
vt 75.1093 -28.4720 0.0000
vt 75.1093 -28.1767 0.0000
vt 69.1093 -28.1767 0.0000
vt 69.1093 -28.4720 0.0000
vt 75.1093 -39.2509 0.0000
vt 75.1093 -38.9556 0.0000
vt 69.1093 -38.9556 0.0000
vt 69.1093 -39.2509 0.0000
vt -26.5826 4.4297 0.0000
vt -26.5826 0.0000 0.0000
vt -26.3826 0.0000 0.0000
vt -26.3826 4.4297 0.0000
vt -69.1093 -38.9556 0.0000
vt -75.1093 -38.9556 0.0000
vt -75.1093 -39.2509 0.0000
vt -69.1093 -39.2509 0.0000
vt 6.9109 0.0000 0.0000
vt 7.5109 0.0000 0.0000
vt 7.5109 2.0000 0.0000
vt 6.9109 2.0000 0.0000
vt -7.5109 0.0000 0.0000
vt -6.9109 0.0000 0.0000
vt -6.9109 2.0000 0.0000
vt -7.5109 2.0000 0.0000
vt 19.2826 0.0000 0.0000
vt 19.2826 4.4297 0.0000
vt 19.0826 4.4297 0.0000
vt 19.0826 0.0000 0.0000
vt 26.5826 0.0000 0.0000
vt 26.5826 4.4297 0.0000
vt 26.3826 4.4297 0.0000
vt 26.3826 0.0000 0.0000
# 88 texture coords

g Gruppe_297_003
usemtl wire_143224087
s off
f 25/89/17 26/90/18 27/91/18 28/92/17 
f 25/93/17 28/94/17 29/95/19 30/96/19 
f 31/97/20 32/98/20 33/99/21 34/100/22 
f 35/101/19 31/102/23 34/103/22 36/104/24 
f 37/105/25 38/106/26 39/107/19 40/108/27 
f 41/109/28 42/110/29 37/111/25 40/112/27 
f 33/113/21 32/114/28 43/115/28 44/116/30 
f 43/117/31 35/118/19 36/119/24 44/120/30 
f 45/121/32 46/122/17 39/123/19 38/124/26 
f 45/125/32 42/126/29 41/127/20 46/128/17 
f 27/129/18 26/130/18 47/131/27 48/132/27 
f 47/133/27 30/134/19 29/135/19 48/136/27 
f 32/137/28 27/138/28 48/139/28 43/140/28 
f 48/141/31 29/142/31 35/143/31 43/144/31 
f 28/145/23 31/146/23 35/147/23 29/148/23 
f 46/149/23 25/150/23 30/151/23 39/152/23 
f 40/153/31 39/154/31 30/155/31 47/156/31 
f 47/157/28 26/158/28 41/159/28 40/160/28 
f 36/161/24 34/162/22 33/163/21 44/164/30 
f 45/165/32 38/166/26 37/167/25 42/168/29 
f 28/169/20 27/170/20 32/171/20 31/172/20 
f 46/173/20 41/174/20 26/175/20 25/176/20 
# 22 polygons

#
# object Gruppe_297_002
#

v  1518.0081 45.8034 463.6873
v  1518.0081 345.8034 463.6873
v  903.1301 345.8034 108.6873
v  903.1301 45.8034 108.6873
v  1203.1300 45.8034 -410.9280
v  1818.0081 45.8034 -55.9280
v  885.8095 45.8034 98.6873
v  885.8095 345.8034 98.6873
v  712.6044 345.8034 -1.3127
v  712.6044 45.8034 -1.3127
v  1185.8094 45.8034 -420.9280
v  1012.6044 45.8034 -520.9280
v  2051.8350 345.8034 79.0720
v  2051.8350 45.8034 79.0720
v  1835.3286 45.8034 -45.9280
v  1835.3286 345.8034 -45.9280
v  1535.3286 345.8034 473.6873
v  1751.8350 345.8034 598.6873
v  1185.8094 345.8034 -420.9280
v  1012.6044 345.8034 -520.9280
v  1751.8350 45.8034 598.6873
v  1535.3286 45.8034 473.6873
v  1818.0081 345.8034 -55.9280
v  1203.1300 345.8034 -410.9280
# 24 vertices

vn -0.3536 -0.7071 0.6124
vn -0.3536 0.7071 0.6124
vn 0.3536 -0.7071 -0.6124
vn -0.5000 0.0000 0.8660
vn -0.7887 0.5774 0.2113
vn -0.7887 -0.5774 0.2113
vn 0.0000 -1.0000 -0.0000
vn -0.2113 -0.5774 -0.7887
vn 0.7887 0.5774 -0.2113
vn 0.7887 -0.5774 -0.2113
vn 0.3536 0.7071 -0.6124
vn 0.0000 1.0000 -0.0000
vn 0.2113 0.5774 0.7887
vn -0.2113 0.5774 -0.7887
vn 0.5000 0.0000 -0.8660
vn 0.2113 -0.5774 0.7887
# 16 vertex normals

vt 1.3333 0.5817 0.0000
vt 1.1511 0.5817 0.0000
vt 1.1511 -0.0654 0.0000
vt 1.3333 -0.0654 0.0000
vt 5.0073 -2.6383 0.0000
vt 5.0073 -1.9283 0.0000
vt 4.6073 -1.9283 0.0000
vt 4.6073 -2.6383 0.0000
vt 1.3333 -0.0836 0.0000
vt 1.1511 -0.0836 0.0000
vt 1.1511 -0.2659 0.0000
vt 1.3333 -0.2659 0.0000
vt 4.6073 -1.9083 0.0000
vt 5.0073 -1.9083 0.0000
vt 5.0073 -1.7083 0.0000
vt 4.6073 -1.7083 0.0000
vt 1.1511 -4.4730 0.0000
vt 1.3333 -4.4730 0.0000
vt 1.3333 -4.2452 0.0000
vt 1.1511 -4.2452 0.0000
vt -5.0073 -2.6583 0.0000
vt -5.0073 -2.9083 0.0000
vt -4.6073 -2.9083 0.0000
vt -4.6073 -2.6583 0.0000
vt -5.0073 -1.7083 0.0000
vt -5.0073 -1.9083 0.0000
vt -4.6073 -1.9083 0.0000
vt -4.6073 -1.7083 0.0000
vt 1.1511 -3.5617 0.0000
vt 1.3333 -3.5617 0.0000
vt 1.3333 -3.3794 0.0000
vt 1.1511 -3.3794 0.0000
vt 5.0073 -2.9083 0.0000
vt 5.0073 -2.6583 0.0000
vt 4.6073 -2.6583 0.0000
vt 4.6073 -2.9083 0.0000
vt 1.3333 0.8277 0.0000
vt 1.1511 0.8277 0.0000
vt 1.1511 0.5999 0.0000
vt 1.3333 0.5999 0.0000
vt -5.0073 -1.9283 0.0000
vt -5.0073 -2.6383 0.0000
vt -4.6073 -2.6383 0.0000
vt -4.6073 -1.9283 0.0000
vt 1.1511 -4.2270 0.0000
vt 1.3333 -4.2270 0.0000
vt 1.3333 -3.5799 0.0000
vt 1.1511 -3.5799 0.0000
vt -75.1093 -28.1767 0.0000
vt -75.1093 -28.4720 0.0000
vt -69.1093 -28.4720 0.0000
vt -69.1093 -28.1767 0.0000
vt -19.2826 4.4297 0.0000
vt -19.2826 0.0000 0.0000
vt -19.0826 0.0000 0.0000
vt -19.0826 4.4297 0.0000
vt 75.1093 -28.4720 0.0000
vt 75.1093 -28.1767 0.0000
vt 69.1093 -28.1767 0.0000
vt 69.1093 -28.4720 0.0000
vt 75.1093 -39.2509 0.0000
vt 75.1093 -38.9556 0.0000
vt 69.1093 -38.9556 0.0000
vt 69.1093 -39.2509 0.0000
vt -26.5826 4.4297 0.0000
vt -26.5826 0.0000 0.0000
vt -26.3826 0.0000 0.0000
vt -26.3826 4.4297 0.0000
vt -69.1093 -38.9556 0.0000
vt -75.1093 -38.9556 0.0000
vt -75.1093 -39.2509 0.0000
vt -69.1093 -39.2509 0.0000
vt 6.9109 0.0000 0.0000
vt 7.5109 0.0000 0.0000
vt 7.5109 2.0000 0.0000
vt 6.9109 2.0000 0.0000
vt -7.5109 0.0000 0.0000
vt -6.9109 0.0000 0.0000
vt -6.9109 2.0000 0.0000
vt -7.5109 2.0000 0.0000
vt 19.2826 0.0000 0.0000
vt 19.2826 4.4297 0.0000
vt 19.0826 4.4297 0.0000
vt 19.0826 0.0000 0.0000
vt 26.5826 0.0000 0.0000
vt 26.5826 4.4297 0.0000
vt 26.3826 4.4297 0.0000
vt 26.3826 0.0000 0.0000
# 88 texture coords

g Gruppe_297_002
usemtl wire_087224198
s off
f 49/177/33 50/178/34 51/179/34 52/180/33 
f 49/181/33 52/182/33 53/183/35 54/184/35 
f 55/185/36 56/186/36 57/187/37 58/188/38 
f 59/189/35 55/190/39 58/191/38 60/192/40 
f 61/193/41 62/194/42 63/195/35 64/196/43 
f 65/197/44 66/198/45 61/199/41 64/200/43 
f 57/201/37 56/202/44 67/203/44 68/204/46 
f 67/205/47 59/206/35 60/207/40 68/208/46 
f 69/209/48 70/210/33 63/211/35 62/212/42 
f 69/213/48 66/214/45 65/215/36 70/216/33 
f 51/217/34 50/218/34 71/219/43 72/220/43 
f 71/221/43 54/222/35 53/223/35 72/224/43 
f 56/225/44 51/226/44 72/227/44 67/228/44 
f 72/229/47 53/230/47 59/231/47 67/232/47 
f 52/233/39 55/234/39 59/235/39 53/236/39 
f 70/237/39 49/238/39 54/239/39 63/240/39 
f 64/241/47 63/242/47 54/243/47 71/244/47 
f 71/245/44 50/246/44 65/247/44 64/248/44 
f 60/249/40 58/250/38 57/251/37 68/252/46 
f 69/253/48 62/254/42 61/255/41 66/256/45 
f 52/257/36 51/258/36 56/259/36 55/260/36 
f 70/261/36 65/262/36 50/263/36 49/264/36 
# 22 polygons

#
# object Gruppe_297_001
#

v  -1014.9783 0.0000 34.3332
v  -1014.9783 300.0000 34.3332
v  -1439.2921 300.0000 603.5939
v  -1439.2921 0.0000 603.5939
v  -1920.3577 0.0000 245.0188
v  -1496.0437 0.0000 -324.2419
v  -1451.2446 0.0000 619.6295
v  -1451.2446 300.0000 619.6295
v  -1570.7697 300.0000 779.9846
v  -1570.7697 0.0000 779.9846
v  -1932.3101 0.0000 261.0544
v  -2051.8352 0.0000 421.4095
v  -1334.6851 300.0000 -540.7213
v  -1334.6851 0.0000 -540.7213
v  -1484.0913 0.0000 -340.2773
v  -1484.0913 300.0000 -340.2773
v  -1003.0258 300.0000 18.2977
v  -853.6196 300.0000 -182.1462
v  -1932.3101 300.0000 261.0544
v  -2051.8352 300.0000 421.4095
v  -853.6196 0.0000 -182.1462
v  -1003.0258 0.0000 18.2977
v  -1496.0437 300.0000 -324.2419
v  -1920.3577 300.0000 245.0188
# 24 vertices

vn 0.5669 -0.7071 0.4226
vn 0.5669 0.7071 0.4226
vn -0.5669 -0.7071 -0.4226
vn 0.8018 0.0000 0.5976
vn 0.1179 0.5774 0.8079
vn 0.1179 -0.5774 0.8079
vn 0.0000 -1.0000 -0.0000
vn -0.8079 -0.5774 0.1179
vn -0.1179 0.5774 -0.8079
vn -0.1179 -0.5774 -0.8079
vn -0.5669 0.7071 -0.4226
vn 0.0000 1.0000 -0.0000
vn 0.8079 0.5774 -0.1179
vn -0.8079 0.5774 0.1179
vn -0.8018 0.0000 -0.5976
vn 0.8079 -0.5774 -0.1179
# 16 vertex normals

vt 1.3333 0.5817 0.0000
vt 1.1511 0.5817 0.0000
vt 1.1511 -0.0654 0.0000
vt 1.3333 -0.0654 0.0000
vt 5.0073 -2.6383 0.0000
vt 5.0073 -1.9283 0.0000
vt 4.6073 -1.9283 0.0000
vt 4.6073 -2.6383 0.0000
vt 1.3333 -0.0836 0.0000
vt 1.1511 -0.0836 0.0000
vt 1.1511 -0.2659 0.0000
vt 1.3333 -0.2659 0.0000
vt 4.6073 -1.9083 0.0000
vt 5.0073 -1.9083 0.0000
vt 5.0073 -1.7083 0.0000
vt 4.6073 -1.7083 0.0000
vt 1.1511 -4.4730 0.0000
vt 1.3333 -4.4730 0.0000
vt 1.3333 -4.2452 0.0000
vt 1.1511 -4.2452 0.0000
vt -5.0073 -2.6583 0.0000
vt -5.0073 -2.9083 0.0000
vt -4.6073 -2.9083 0.0000
vt -4.6073 -2.6583 0.0000
vt -5.0073 -1.7083 0.0000
vt -5.0073 -1.9083 0.0000
vt -4.6073 -1.9083 0.0000
vt -4.6073 -1.7083 0.0000
vt 1.1511 -3.5617 0.0000
vt 1.3333 -3.5617 0.0000
vt 1.3333 -3.3794 0.0000
vt 1.1511 -3.3794 0.0000
vt 5.0073 -2.9083 0.0000
vt 5.0073 -2.6583 0.0000
vt 4.6073 -2.6583 0.0000
vt 4.6073 -2.9083 0.0000
vt 1.3333 0.8277 0.0000
vt 1.1511 0.8277 0.0000
vt 1.1511 0.5999 0.0000
vt 1.3333 0.5999 0.0000
vt -5.0073 -1.9283 0.0000
vt -5.0073 -2.6383 0.0000
vt -4.6073 -2.6383 0.0000
vt -4.6073 -1.9283 0.0000
vt 1.1511 -4.2270 0.0000
vt 1.3333 -4.2270 0.0000
vt 1.3333 -3.5799 0.0000
vt 1.1511 -3.5799 0.0000
vt -75.1093 -28.1767 0.0000
vt -75.1093 -28.4720 0.0000
vt -69.1093 -28.4720 0.0000
vt -69.1093 -28.1767 0.0000
vt -19.2826 4.4297 0.0000
vt -19.2826 0.0000 0.0000
vt -19.0826 0.0000 0.0000
vt -19.0826 4.4297 0.0000
vt 75.1093 -28.4720 0.0000
vt 75.1093 -28.1767 0.0000
vt 69.1093 -28.1767 0.0000
vt 69.1093 -28.4720 0.0000
vt 75.1093 -39.2509 0.0000
vt 75.1093 -38.9556 0.0000
vt 69.1093 -38.9556 0.0000
vt 69.1093 -39.2509 0.0000
vt -26.5826 4.4297 0.0000
vt -26.5826 0.0000 0.0000
vt -26.3826 0.0000 0.0000
vt -26.3826 4.4297 0.0000
vt -69.1093 -38.9556 0.0000
vt -75.1093 -38.9556 0.0000
vt -75.1093 -39.2509 0.0000
vt -69.1093 -39.2509 0.0000
vt 6.9109 0.0000 0.0000
vt 7.5109 0.0000 0.0000
vt 7.5109 2.0000 0.0000
vt 6.9109 2.0000 0.0000
vt -7.5109 0.0000 0.0000
vt -6.9109 0.0000 0.0000
vt -6.9109 2.0000 0.0000
vt -7.5109 2.0000 0.0000
vt 19.2826 0.0000 0.0000
vt 19.2826 4.4297 0.0000
vt 19.0826 4.4297 0.0000
vt 19.0826 0.0000 0.0000
vt 26.5826 0.0000 0.0000
vt 26.5826 4.4297 0.0000
vt 26.3826 4.4297 0.0000
vt 26.3826 0.0000 0.0000
# 88 texture coords

g Gruppe_297_001
usemtl wire_143224087
s off
f 73/265/49 74/266/50 75/267/50 76/268/49 
f 73/269/49 76/270/49 77/271/51 78/272/51 
f 79/273/52 80/274/52 81/275/53 82/276/54 
f 83/277/51 79/278/55 82/279/54 84/280/56 
f 85/281/57 86/282/58 87/283/51 88/284/59 
f 89/285/60 90/286/61 85/287/57 88/288/59 
f 81/289/53 80/290/60 91/291/60 92/292/62 
f 91/293/63 83/294/51 84/295/56 92/296/62 
f 93/297/64 94/298/49 87/299/51 86/300/58 
f 93/301/64 90/302/61 89/303/52 94/304/49 
f 75/305/50 74/306/50 95/307/59 96/308/59 
f 95/309/59 78/310/51 77/311/51 96/312/59 
f 80/313/60 75/314/60 96/315/60 91/316/60 
f 96/317/63 77/318/63 83/319/63 91/320/63 
f 76/321/55 79/322/55 83/323/55 77/324/55 
f 94/325/55 73/326/55 78/327/55 87/328/55 
f 88/329/63 87/330/63 78/331/63 95/332/63 
f 95/333/60 74/334/60 89/335/60 88/336/60 
f 84/337/56 82/338/54 81/339/53 92/340/62 
f 93/341/64 86/342/58 85/343/57 90/344/61 
f 76/345/52 75/346/52 80/347/52 79/348/52 
f 94/349/52 89/350/52 74/351/52 73/352/52 
# 22 polygons

